<?xml version="1.0" encoding="utf-8"?>
<!-- Generator: Adobe Illustrator 25.2.3, SVG Export Plug-In . SVG Version: 6.00 Build 0)  -->
<svg version="1.1" id="Layer_1" xmlns="http://www.w3.org/2000/svg" xmlns:xlink="http://www.w3.org/1999/xlink" x="0px" y="0px"
	 viewBox="0 0 28.1 32" style="enable-background:new 0 0 28.1 32;" xml:space="preserve">
<style type="text/css">
	.st0{fill:#3D6666;}
</style>
<g id="Layer_2_1_">
	<g id="layer_1-2">
		<path class="st0" d="M24.9,22.8l-1-3.1c-0.4-1.2-1.1-2.2-2.2-3l-3.4-2.4c1.2-1.2,2-2.8,2-4.5c0-0.4,0-0.7-0.1-1.1
			c1.6-1.2,0.9-4.2,0.8-4.6l-0.1-0.6h-8.4c-2,0-3.7,0.9-4.3,2.3c-0.2,0.6-0.2,1.3,0,1.9c-0.8,2.3-0.2,4.9,1.6,6.6l-3.5,2.4
			c-1,0.8-1.7,1.8-2.1,3l-1,3.1C3,23.2,3.1,23.7,3.3,24C4,25,5.8,25.7,7,26c0,0,0,0.1,0,0.1C7,27.5,9,28,9.6,28.1
			c1.5,0.3,3,0.4,4.5,0.4c2.6,0,7-0.3,7-2.3c0,0,0-0.1,0-0.1c1.2-0.3,3.1-1.1,3.7-2C25,23.7,25.1,23.2,24.9,22.8z M18.6,16.4l-2,1.6
			L15,15.9c0.7-0.1,1.4-0.3,2-0.7L18.6,16.4z M19.7,5.1c0.1,0.9,0.1,2.1-0.4,2.4c-0.5-0.1-1-0.3-1.4-0.5c-1.2-0.6-2.5-1-3.8-1.1
			C12.5,6,11,6.4,9.6,7.2c-0.1-0.2-0.1-0.5,0-0.8c0.3-0.6,1.3-1.3,2.9-1.3H19.7z M9.4,9.8c0-0.2,0-0.5,0.1-0.7l0.3-0.2
			c1.3-0.8,2.8-1.3,4.3-1.5c1.1,0.1,2.2,0.4,3.1,1c0.5,0.2,1,0.4,1.5,0.6c0,0.3,0.1,0.5,0.1,0.8c0,2.6-2.1,4.7-4.7,4.7
			S9.4,12.3,9.4,9.8L9.4,9.8z M13.1,15.9l-1.5,2l-1.8-1.8l1.3-0.9C11.7,15.6,12.4,15.8,13.1,15.9z M8.6,26.1l0.7-3.7
			c0.1-0.4-0.2-0.8-0.6-0.9c0,0,0,0,0,0c-0.4-0.1-0.8,0.2-0.9,0.6l-0.5,2.4c-1-0.2-1.9-0.7-2.7-1.3l1-3c0.3-0.9,0.8-1.6,1.6-2.2
			l1.3-0.9l2.6,2.6c0.2,0.2,0.4,0.2,0.6,0.2c0.2,0,0.4-0.1,0.5-0.2l1,1l-1.6,3.9l1.7,2.3C10.6,26.9,9,26.4,8.6,26.1L8.6,26.1z
			 M20.8,24.5l-0.5-2.4c-0.1-0.4-0.5-0.7-0.9-0.6c-0.4,0.1-0.7,0.5-0.6,0.9l0.8,3.7c-0.4,0.3-2,0.8-4.8,0.8l1.7-2.3l-1.6-3.9l1-1
			c0.1,0.1,0.3,0.2,0.4,0.2h0.1c0.2,0,0.3-0.1,0.5-0.2l3-2.4l0.9,0.6c0.7,0.6,1.3,1.3,1.6,2.2l1,3C22.6,23.8,21.7,24.3,20.8,24.5
			L20.8,24.5z"/>
	</g>
</g>
</svg>
