<svg xmlns="http://www.w3.org/2000/svg" xmlns:xlink="http://www.w3.org/1999/xlink" width="200" height="200" viewBox="0 0 200 200">
  <defs>
    <linearGradient id="linear-gradient" x1="0.5" x2="0.5" y2="1" gradientUnits="objectBoundingBox">
      <stop offset="0" stop-color="#fff"/>
      <stop offset="0.478" stop-color="#4fcdda"/>
      <stop offset="1" stop-color="#5f4693"/>
    </linearGradient>
  </defs>
  <g id="Group_17" data-name="Group 17" transform="translate(-200 -340)">
    <g id="Rectangle_9" data-name="Rectangle 9" transform="translate(200 340)" stroke="#c1c1c1" stroke-width="1" fill="url(#linear-gradient)">
      <rect width="200" height="200" rx="50" stroke="none"/>
      <rect x="0.5" y="0.5" width="199" height="199" rx="49.5" fill="none"/>
    </g>
    <g id="Layer_2" data-name="Layer 2" transform="translate(256 398)">
      <g id="Layer_1" data-name="Layer 1">
        <path id="Path_9" data-name="Path 9" d="M44.11,58.05V50h-5V37.63h5V28.22H6l-1.89.92V84.68H32.05V70.11A12.06,12.06,0,0,1,44.11,58.05Z" fill="#f5f5f5"/>
        <rect id="Rectangle_11" data-name="Rectangle 11" width="10.1" height="12.31" transform="translate(13.32 60.74)" fill="#49adea"/>
        <rect id="Rectangle_12" data-name="Rectangle 12" width="10.1" height="12.32" transform="translate(13.32 37.63)" fill="#49adea"/>
        <path id="Path_10" data-name="Path 10" d="M44.11,9.84,6.01,28.22h38.1Z" fill="#49adea"/>
        <path id="Path_11" data-name="Path 11" d="M44.11,9.84V28.22H82.2Z" fill="#3586aa"/>
        <path id="Path_12" data-name="Path 12" d="M44.12,0V9.84L82.2,28.22l1.9.92.27.13,3.85-8Z" fill="#b7281d"/>
        <path id="Path_13" data-name="Path 13" d="M44.11,28.22v9.41h5V50h-5v8.1A12.06,12.06,0,0,1,56.17,70.11V84.68H84.1V29.14l-1.9-.92ZM74.9,73.05H64.8V60.74H74.9Zm0-23.1H64.79V37.63H74.9Z" fill="#cacccb"/>
        <path id="Path_14" data-name="Path 14" d="M0,21.29l3.85,7.98.27-.13,1.89-.92L44.11,9.84V0Z" fill="#e54b42"/>
        <path id="Path_15" data-name="Path 15" d="M44.11,58.05A12.06,12.06,0,0,0,32.05,70.11V84.68H44.11Z" fill="#e54b42"/>
        <path id="Path_16" data-name="Path 16" d="M56.17,70.11A12.06,12.06,0,0,0,44.11,58.05V84.68H56.17Z" fill="#b7281d"/>
        <rect id="Rectangle_13" data-name="Rectangle 13" width="5.05" height="12.31" transform="translate(39.06 37.63)" fill="#49adea"/>
        <rect id="Rectangle_14" data-name="Rectangle 14" width="5.05" height="12.31" transform="translate(44.11 37.63)" fill="#3586aa"/>
        <rect id="Rectangle_15" data-name="Rectangle 15" width="10.1" height="12.31" transform="translate(64.8 37.63)" fill="#3586aa"/>
        <rect id="Rectangle_16" data-name="Rectangle 16" width="10.1" height="12.31" transform="translate(64.8 60.74)" fill="#3586aa"/>
        <path id="Path_17" data-name="Path 17" d="M44.11,13.93a5.82,5.82,0,0,0,0,11.63h.2V13.94Z" fill="#f5f5f5"/>
        <path id="Path_18" data-name="Path 18" d="M49.92,19.75a5.81,5.81,0,0,0-5.61-5.81V25.55A5.81,5.81,0,0,0,49.92,19.75Z" fill="#cacccb"/>
        <path id="Path_19" data-name="Path 19" d="M42.73,74.82A1.77,1.77,0,1,1,41,73.05,1.77,1.77,0,0,1,42.73,74.82Z" fill="#595858"/>
        <path id="Path_20" data-name="Path 20" d="M49,74.82a1.76,1.76,0,1,1-.512-1.251A1.77,1.77,0,0,1,49,74.82Z" fill="#1c1c1c"/>
      </g>
    </g>
  </g>
</svg>
