<svg xmlns="http://www.w3.org/2000/svg" viewBox="0 0 88.22 84.68"><defs><style>.cls-1{fill:#f5f5f5;}.cls-2{fill:#49adea;}.cls-3{fill:#3586aa;}.cls-4{fill:#b7281d;}.cls-5{fill:#cacccb;}.cls-6{fill:#e54b42;}.cls-7{fill:#595858;}.cls-8{fill:#1c1c1c;}</style></defs><g id="Layer_2" data-name="Layer 2"><g id="Layer_1-2" data-name="Layer 1"><path class="cls-1" d="M44.11,58.05V50h-5V37.63h5V28.22H6l-1.89.92V84.68H32.05V70.11A12.06,12.06,0,0,1,44.11,58.05Z"/><rect class="cls-2" x="13.32" y="60.74" width="10.1" height="12.31"/><rect class="cls-2" x="13.32" y="37.63" width="10.1" height="12.32"/><polygon class="cls-2" points="44.11 9.84 6.01 28.22 44.11 28.22 44.11 9.84"/><polygon class="cls-3" points="44.11 9.84 44.11 28.22 82.2 28.22 44.11 9.84"/><path class="cls-4" d="M44.12,0s0,9.84,0,9.84L82.2,28.22l1.9.92.27.13,3.85-8Z"/><path class="cls-5" d="M44.11,28.22v9.41h5V50h-5v8.1A12.06,12.06,0,0,1,56.17,70.11V84.68H84.1V29.14l-1.9-.92ZM74.9,73.05H64.8V60.74H74.9Zm0-23.1H64.79V37.63H74.9Z"/><polygon class="cls-6" points="0 21.29 3.85 29.27 4.12 29.14 6.01 28.22 44.11 9.84 44.11 0 0 21.29"/><path class="cls-6" d="M44.11,58.05A12.06,12.06,0,0,0,32.05,70.11V84.68H44.11Z"/><path class="cls-4" d="M56.17,70.11A12.06,12.06,0,0,0,44.11,58.05V84.68H56.17Z"/><rect class="cls-2" x="39.06" y="37.63" width="5.05" height="12.31"/><rect class="cls-3" x="44.11" y="37.63" width="5.05" height="12.31"/><rect class="cls-3" x="64.8" y="37.63" width="10.1" height="12.31"/><rect class="cls-3" x="64.8" y="60.74" width="10.1" height="12.31"/><path class="cls-1" d="M44.11,13.93a5.82,5.82,0,0,0,0,11.63h.2V13.94Z"/><path class="cls-5" d="M49.92,19.75a5.81,5.81,0,0,0-5.61-5.81V25.55A5.81,5.81,0,0,0,49.92,19.75Z"/><path class="cls-7" d="M42.73,74.82A1.77,1.77,0,1,1,41,73.05,1.76,1.76,0,0,1,42.73,74.82Z"/><path class="cls-8" d="M49,74.82a1.77,1.77,0,1,1-1.76-1.77A1.76,1.76,0,0,1,49,74.82Z"/></g></g></svg>