<svg xmlns="http://www.w3.org/2000/svg" xmlns:xlink="http://www.w3.org/1999/xlink" width="200" height="200" viewBox="0 0 200 200">
  <defs>
    <linearGradient id="linear-gradient" x1="0.5" x2="0.5" y2="1" gradientUnits="objectBoundingBox">
      <stop offset="0" stop-color="#fff"/>
      <stop offset="0.478" stop-color="#4fcdda"/>
      <stop offset="1" stop-color="#5f4693"/>
    </linearGradient>
  </defs>
  <g id="Group_18" data-name="Group 18" transform="translate(-860 -340)">
    <g id="Rectangle_8" data-name="Rectangle 8" transform="translate(860 340)" stroke="#c1c1c1" stroke-width="1" fill="url(#linear-gradient)">
      <rect width="200" height="200" rx="50" stroke="none"/>
      <rect x="0.5" y="0.5" width="199" height="199" rx="49.5" fill="none"/>
    </g>
    <g id="Layer_2" data-name="Layer 2" transform="translate(900 395)">
      <g id="Layer_1" data-name="Layer 1">
        <path id="Path_23" data-name="Path 23" d="M120.57,28,80.34,9.3c-7,16.94-24.68,30-46.67,34.27L60.29,55.91Z" fill="#1c1c1c"/>
        <path id="Path_24" data-name="Path 24" d="M80.34,9.3,60.29,0,0,28,33.67,43.57C55.66,39.32,73.29,26.24,80.34,9.3Z" fill="#595858"/>
        <path id="Path_25" data-name="Path 25" d="M69.78,55.92V81.19c12.52-2.45,21.58-9.56,21.58-17.94V45.91Z" fill="#1c1c1c"/>
        <path id="Path_26" data-name="Path 26" d="M60.16,60.38,33.54,48,29,45.91V63.25C29,73.66,43,82.1,60.2,82.1a50.42,50.42,0,0,0,9.62-.91V55.92Z" fill="#595858"/>
        <path id="Path_27" data-name="Path 27" d="M63.96,26.8l-4.48-2.07L30.11,38.35l-3.7,1.71,4.47,2.08Z" fill="#eab828"/>
        <path id="Path_28" data-name="Path 28" d="M26.41,40.06c-.06,0-.05,4.18-.05,4.18V74.15a3.9,3.9,0,0,1,3.37.6,2.88,2.88,0,0,1,.59.75l.12-12.77.21-20.5.18-.09Z" fill="#ffdf5a"/>
        <path id="Path_29" data-name="Path 29" d="M30.37,75.5a2.48,2.48,0,0,0-1.62-1.28A53.19,53.19,0,0,1,20.65,88c1.16.95,2.31,1.84,3.45,2.64.37-.39.73-.79,1.09-1.2s.85-1,1.25-1.55a24.59,24.59,0,0,0,3.88-7.07C31,78.62,31.07,76.74,30.37,75.5Z" fill="#b7281d"/>
        <path id="Path_30" data-name="Path 30" d="M26.41,74.15c-3,.58-7,3.26-10.49,7.3-.36.41-.7.83-1,1.25,1.33,1.4,2.81,2.82,4.41,4.2.45.39.9.74,1.35,1.11a53.19,53.19,0,0,0,8.1-13.79,4.78,4.78,0,0,0-2.37-.07Z" fill="#e54b42"/>
        <path id="Path_31" data-name="Path 31" d="M31,76a1.29,1.29,0,0,1-1.64.79l-3-1a1.29,1.29,0,0,1,.84-2.43l3,1A1.3,1.3,0,0,1,31,76Z" fill="#595858"/>
        <path id="Path_32" data-name="Path 32" d="M64.81,26.46c0,1.62-2.08,2.95-4.65,2.95s-4.65-1.33-4.65-2.95,2.08-2.95,4.65-2.95S64.81,24.83,64.81,26.46Z" fill="#e54b42"/>
      </g>
    </g>
  </g>
</svg>
